<svg aria-hidden="true" viewBox="0 0 30 30" fill="none" xmlns="http://www.w3.org/2000/svg"><path fill-rule="evenodd" clip-rule="evenodd" d="M20.2 24.1c.8.9 1.7 2 1.7 2 5.3-.2 7.5-3.5 7.7-3.8 0-8.1-3.7-14.7-3.7-14.7-3.5-2.7-7-2.6-7-2.6l-.4.4c4.3 1.3 6.3 3.2 6.3 3.2a21.1 21.1 0 0 0-7.7-2.4 21.5 21.5 0 0 0-5.1.1h-.5c-.9.1-3 .4-5.8 1.6-.9.4-1.5.7-1.5.7s2.1-2 6.7-3.3l-.1-.3s-3.5-.1-7.1 2.6c0 0-3.7 6.6-3.7 14.7 0 0 2.1 3.7 7.8 3.8 0 0 .9-1.1 1.7-2.1C6.3 23 5 21 5 21s.3.2.7.4h.1s.1 0 .1.1a14.9 14.9 0 0 0 2 .9c1 .4 2.3.8 3.7 1.1 1.9.4 4.1.5 6.6 0a18.2 18.2 0 0 0 3.7-1.1 14.6 14.6 0 0 0 2.9-1.5s-1.3 2.1-4.6 3Zm-3.5-6.9c0-1.6 1.1-2.8 2.6-2.8 1.4 0 2.6 1.2 2.6 2.8 0 1.6-1.1 2.8-2.6 2.8-1.4 0-2.6-1.2-2.6-2.8Zm-9.3 0c0-1.6 1.1-2.8 2.6-2.8 1.4 0 2.6 1.2 2.6 2.8 0 1.6-1.1 2.8-2.6 2.8-1.4 0-2.6-1.2-2.6-2.8Z" fill="currentColor"/></svg>