<svg viewBox="0 0 30 30" fill="none" xmlns="http://www.w3.org/2000/svg"><path fill-rule="evenodd" clip-rule="evenodd" d="M29.007 6.724c-1.032.46-2.14.773-3.3.912a5.797 5.797 0 0 0 2.523-3.214 11.44 11.44 0 0 1-3.648 1.41A5.713 5.713 0 0 0 20.387 4c-3.171 0-5.745 2.602-5.745 5.807 0 .456.05.9.15 1.322-4.775-.24-9.008-2.555-11.84-6.069a5.837 5.837 0 0 0-.778 2.918 5.815 5.815 0 0 0 2.557 4.832 5.685 5.685 0 0 1-2.603-.727v.072c0 2.813 1.98 5.161 4.609 5.693a5.698 5.698 0 0 1-2.595.097c.731 2.306 2.854 3.987 5.365 4.034a11.446 11.446 0 0 1-7.137 2.487c-.463 0-.919-.03-1.37-.08a16.133 16.133 0 0 0 8.808 2.61c10.567 0 16.345-8.848 16.345-16.522 0-.253-.004-.502-.016-.751a11.691 11.691 0 0 0 2.866-3.007l.004.008Z" fill="currentColor"/></svg>