<svg xmlns="http://www.w3.org/2000/svg" width="1365.333" height="1365.333" version="1" viewBox="0 0 1024 1024"><path d="M0 512v512h1024V0H0v512zm826.5-36l69.3 205.5-52.7.3c-28.9.1-53.1 0-53.6-.2-.6-.2-7.1-19.6-14.5-43L761.7 596H619.1l-4.2 13.2c-2.3 7.3-8.3 26.5-13.4 42.8l-9.2 29.5-53.7.3c-29.5.1-53.6 0-53.6-.3 0-.5 136.5-405.2 138.1-409.3l.9-2.2 66.6.2 66.7.3L826.5 476zM273.3 373.6c79.3 33.4 144.8 60.9 145.5 61.1 1 .4 1.2 9.5 1 42.5l-.3 42-143.9 60.4c-79.1 33.2-144.7 60.6-145.7 60.9-1.9.6-1.9-.8-1.7-45l.3-45.7 94-35.3c77.5-29.1 94.1-35.7 94.3-37.3.3-1.7-10.8-6.1-94.2-37.3L128 404.5v-45.8c0-25.1.2-45.7.5-45.7s65.4 27.3 144.8 60.6zM472 718v36H128v-72h344v36z"/><path d="M687.5 375.2c-.4 1.3-43.2 139.9-44.1 143-.5 1.7 2.2 1.8 46.5 1.8 25.9 0 47.1-.1 47.1-.3 0-.1-10.3-32.8-22.8-72.7-17.8-56.6-23.1-72.6-24.5-72.8-.9-.2-1.9.2-2.2 1z"/></svg>