<svg xmlns="http://www.w3.org/2000/svg" viewBox="0 0 32 32"><style>@media (prefers-color-scheme:dark){.a{fill:#f0f0f0}}</style><path d="M0 0h32v32H0z"/><path d="M1.57 25L6.39 7h5l4.74 18h-3.82l-1-4.14h-5L5.36 25zm9.08-7l-1.38-6c0-.25-.1-.52-.15-.82S9 10.62 9 10.35s-.07-.57-.1-.87h-.15c0 .3-.08.59-.13.87s-.07.55-.11.84a8 8 0 01-.16.82L7 18zm6.73 7V7h4.37l1.83 5.47a2.65 2.65 0 01.15.57c0 .2.07.39.1.56s0 .36.05.55h.2a4.85 4.85 0 01.08-.55c0-.17.06-.36.1-.56a4.78 4.78 0 01.12-.57L26 7h4.42v18h-3.28V14a13.13 13.13 0 01.07-1.4c0-.47.08-.9.13-1.28s.11-.91.18-1.33h-.3c-.09.4-.16.79-.23 1.18s-.16.68-.22 1a8 8 0 01-.23.91l-1.13 4h-3l-1.26-4a8.51 8.51 0 01-.22-.9c-.07-.35-.13-.69-.18-1s-.13-.78-.2-1.2h-.32c.06.42.13.86.2 1.33s.09.81.13 1.28a13.13 13.13 0 01.07 1.4V25z" fill="#f0f0f0" class="a"/></svg>
