<svg xmlns="http://www.w3.org/2000/svg" viewBox="0 0 188.02 29.9">
  <g>
    <path d="M21.2,25.45V29.9H0V25.45Z" style="fill: #1a202c"/>
    <path d="M38.78,0H30.59L22,25.45h6.61l1.67-5.34h8.8l1.68,5.34h6.61Zm-7,15.43,2.83-9h.2l2.83,9Z" style="fill: #1a202c"/>
    <path d="M56.2,14.57V25.45H50.12V6.36H55.9V9.87h.21a5.33,5.33,0,0,1,2.16-2.75,6.5,6.5,0,0,1,3.65-1,6.59,6.59,0,0,1,3.49.9,6.12,6.12,0,0,1,2.32,2.51,8,8,0,0,1,.81,3.76V25.45H62.46v-11a3.54,3.54,0,0,0-.8-2.49,2.9,2.9,0,0,0-2.25-.89,3.34,3.34,0,0,0-1.69.42A2.78,2.78,0,0,0,56.6,12.7,4.27,4.27,0,0,0,56.2,14.57Z" style="fill: #1a202c"/>
    <path d="M79.29,25.73a7,7,0,0,1-3.84-1.1,7.59,7.59,0,0,1-2.76-3.28,12.65,12.65,0,0,1-1-5.43,12.6,12.6,0,0,1,1.07-5.54,7.44,7.44,0,0,1,2.8-3.22,7.09,7.09,0,0,1,3.74-1,5.92,5.92,0,0,1,2.57.51A5.39,5.39,0,0,1,83.6,8a6.13,6.13,0,0,1,1.06,1.68h.12V0h6.08V25.45h-6V22.36h-.19A6,6,0,0,1,83.57,24a5.44,5.44,0,0,1-1.77,1.25A6.24,6.24,0,0,1,79.29,25.73ZM81.4,21a2.91,2.91,0,0,0,1.89-.63,3.81,3.81,0,0,0,1.21-1.77,7.73,7.73,0,0,0,.42-2.68,8,8,0,0,0-.41-2.7,3.82,3.82,0,0,0-1.21-1.74,3.06,3.06,0,0,0-1.9-.61,3,3,0,0,0-1.91.62,3.85,3.85,0,0,0-1.19,1.76,7.9,7.9,0,0,0-.4,2.67,8,8,0,0,0,.41,2.68,3.78,3.78,0,0,0,1.19,1.77A2.9,2.9,0,0,0,81.4,21Z" style="fill: #1a202c"/>
    <path d="M94.72,25.45V6.36h5.9V9.84h.2A5.19,5.19,0,0,1,102.52,7a4.31,4.31,0,0,1,2.75-.93,6.58,6.58,0,0,1,.87.06,5.07,5.07,0,0,1,.83.17v5.28a5.88,5.88,0,0,0-1.14-.24,9.75,9.75,0,0,0-1.25-.08,4,4,0,0,0-1.94.47,3.55,3.55,0,0,0-1.36,1.33,4,4,0,0,0-.49,2V25.45Z" style="fill: #1a202c"/>
    <path d="M126.44,17.37V15.86a12,12,0,0,0-.68-4.18,8.67,8.67,0,0,0-1.92-3.06,8.07,8.07,0,0,0-2.92-1.88,10.58,10.58,0,0,0-3.73-.63,9.69,9.69,0,0,0-5,1.24,8.44,8.44,0,0,0-3.3,3.45A11,11,0,0,0,107.72,16a11.06,11.06,0,0,0,1.17,5.25,8,8,0,0,0,3.33,3.39,10.58,10.58,0,0,0,5.16,1.19,11.72,11.72,0,0,0,4.4-.76,7.8,7.8,0,0,0,3.08-2.15,7,7,0,0,0,1.52-3.27l-5.58-.16a2.72,2.72,0,0,1-.71,1.07,3.09,3.09,0,0,1-1.13.66,4.54,4.54,0,0,1-1.47.22,4,4,0,0,1-2-.48,3.37,3.37,0,0,1-1.31-1.36,4.46,4.46,0,0,1-.46-2v-.16Zm-12.23-5.19A3.44,3.44,0,0,1,115.49,11a3.7,3.7,0,0,1,1.83-.45,3.58,3.58,0,0,1,1.78.43,3.17,3.17,0,0,1,1.23,1.18,3.46,3.46,0,0,1,.46,1.73h-7.07A3.58,3.58,0,0,1,114.21,12.18Z" style="fill: #1a202c"/>
    <path d="M132.93,25.45,128,6.36h6.11l2.57,12.23h.16l2.76-12.23h5.95l2.84,12.15h.16L151,6.36h6.1l-5,19.09h-6.5l-3-11.12h-.21l-3,11.12Z" style="fill: #1a202c"/>
    <path d="M159.56,0h7.62l6.46,15.76h.3L180.4,0H188V25.45h-6V9.82h-.21L175.7,25.29h-3.83L165.76,9.73h-.21V25.45h-6Z" style="fill: #1a202c"/>
    <path d="M18,15.39,0,22.94V17.3l11.88-4.45-.17.29v-.66l.17.27L0,8.31V2.66l18,7.56Z" style="fill: #1a202c"/>
  </g>
</svg>
