<svg xmlns="http://www.w3.org/2000/svg" viewBox="0 0 196 40"><g><rect width="196" height="40" class="text-gray-100"/><g><path d="M25.19,30.5V35H4V30.5Z" style="fill:#fafafa"/><path d="M42.77,5.05H34.58L26,30.5H32.6l1.67-5.34h8.8l1.68,5.34h6.61Zm-7,15.43,2.83-9h.2l2.83,9Z" style="fill:#fafafa"/><path d="M60.19,19.61V30.5H54.11V11.41h5.78v3.51h.21a5.39,5.39,0,0,1,2.16-2.76,6.58,6.58,0,0,1,3.65-1,6.65,6.65,0,0,1,3.5.9,6.29,6.29,0,0,1,2.31,2.51,8,8,0,0,1,.81,3.76V30.5H66.45v-11a3.54,3.54,0,0,0-.8-2.49,2.9,2.9,0,0,0-2.25-.89,3.44,3.44,0,0,0-1.69.41,2.86,2.86,0,0,0-1.12,1.19A4.22,4.22,0,0,0,60.19,19.61Z" style="fill:#fafafa"/><path d="M83.28,30.78a7,7,0,0,1-3.84-1.1,7.59,7.59,0,0,1-2.76-3.28,12.68,12.68,0,0,1-1-5.43,12.57,12.57,0,0,1,1.07-5.54,7.44,7.44,0,0,1,2.8-3.22,7.1,7.1,0,0,1,3.74-1.05,5.92,5.92,0,0,1,2.57.52A5.26,5.26,0,0,1,87.59,13a6.13,6.13,0,0,1,1.06,1.68h.13V5.05h6.07V30.5h-6V27.41h-.19a6,6,0,0,1-1.09,1.65,5.42,5.42,0,0,1-1.77,1.24A6.08,6.08,0,0,1,83.28,30.78ZM85.39,26a2.91,2.91,0,0,0,1.89-.63,3.91,3.91,0,0,0,1.21-1.77A7.73,7.73,0,0,0,88.91,21a8,8,0,0,0-.41-2.7,3.82,3.82,0,0,0-1.21-1.74,3.26,3.26,0,0,0-3.81,0,3.87,3.87,0,0,0-1.19,1.75,8,8,0,0,0-.4,2.68,8,8,0,0,0,.41,2.68,3.88,3.88,0,0,0,1.19,1.77A2.9,2.9,0,0,0,85.39,26Z" style="fill:#fafafa"/><path d="M98.71,30.5V11.41h5.9v3.48h.2a5.15,5.15,0,0,1,1.7-2.81,4.31,4.31,0,0,1,2.75-.93,6.58,6.58,0,0,1,.87.06,5.09,5.09,0,0,1,.83.16v5.29a5.88,5.88,0,0,0-1.14-.24,9.79,9.79,0,0,0-1.25-.09,3.9,3.9,0,0,0-1.94.48,3.48,3.48,0,0,0-1.36,1.33,4,4,0,0,0-.49,2V30.5Z" style="fill:#fafafa"/><path d="M130.43,22.42V20.91a12,12,0,0,0-.68-4.18,8.67,8.67,0,0,0-1.92-3.06,8.07,8.07,0,0,0-2.92-1.88,10.58,10.58,0,0,0-3.73-.63,9.69,9.69,0,0,0-5,1.24,8.44,8.44,0,0,0-3.3,3.45A11,11,0,0,0,111.71,21a11.06,11.06,0,0,0,1.17,5.25,8,8,0,0,0,3.33,3.39,10.58,10.58,0,0,0,5.16,1.19,11.72,11.72,0,0,0,4.4-.76A7.8,7.8,0,0,0,128.85,28a7,7,0,0,0,1.52-3.27l-5.58-.16a2.72,2.72,0,0,1-.71,1.07,3.09,3.09,0,0,1-1.13.66,4.54,4.54,0,0,1-1.47.22,4,4,0,0,1-2-.48,3.37,3.37,0,0,1-1.31-1.36,4.46,4.46,0,0,1-.46-2.05v-.16ZM118.2,17.23A3.44,3.44,0,0,1,119.48,16a3.7,3.7,0,0,1,1.83-.45,3.58,3.58,0,0,1,1.78.43,3.17,3.17,0,0,1,1.23,1.18,3.46,3.46,0,0,1,.46,1.73h-7.07A3.58,3.58,0,0,1,118.2,17.23Z" style="fill:#fafafa"/><path d="M136.92,30.5l-5-19.09h6.11l2.57,12.23h.16l2.76-12.23h5.95l2.84,12.14h.16L155,11.41h6.1l-5,19.09h-6.5l-3-11.12h-.21l-3,11.12Z" style="fill:#fafafa"/><path d="M163.55,5.05h7.62l6.46,15.76h.3l6.46-15.76H192V30.5h-6V14.87h-.21l-6.12,15.47h-3.83l-6.11-15.56h-.21V30.5h-6Z" style="fill:#fafafa"/><path d="M22,20.44,4,28V22.35L15.87,17.9l-.17.29v-.66l.17.27L4,13.36V7.71l18,7.55Z" style="fill:#fafafa"/></g></g></svg>