<svg xmlns="http://www.w3.org/2000/svg" style="fill-rule:evenodd;clip-rule:evenodd;stroke-linejoin:round;stroke-miterlimit:2" viewBox="0 0 1863 572"><path d="M0 13.784c1.387 0 2.283-.816 2.283-2.12 0-1.184-.896-2.162-2.283-2.162h-3.629v4.282zm-.775-9.38c1.386 0 2.366-.938 2.366-2.284C1.591.856.611-.122-.775-.122h-2.854v4.526zm-8.808-9.746H.286c4.077 0 7.34 3.018 7.34 6.85 0 2.284-.939 3.712-2.651 5.016v.082c2.529 1.794 3.588 3.508 3.588 6.036 0 3.384-2.69 6.484-7.339 6.484H-9.583z" style="fill:#1e2826;fill-rule:nonzero" transform="translate(39.927 406.172)scale(4.16667)"/><path d="M0-3.264c1.345 0 2.242-1.386 2.242-2.814 0-1.426-1.06-2.692-2.407-2.692h-4.648v5.506zm-10.808-10.602H-.571c5.259 0 8.685 3.18 8.685 7.788 0 4.282-2.16 6.688-5.791 7.586l6.608 9.094H1.427l-6.24-9.134v9.134h-5.995z" style="fill:#1e2826;fill-rule:nonzero" transform="translate(166.644 441.689)scale(4.16667)"/><path d="M424.149 185.76h5.995v24.468h-5.995z" style="fill:#1e2826" transform="translate(-1520.67 -390.087)scale(4.16667)"/><path d="M0 13.54c3.834 0 6.77-2.692 6.77-6.812C6.77 2.936 4.201-.04 0-.04h-2.406v13.58zM-8.401-5.464H.123c7.218 0 12.805 5.3 12.805 12.192 0 6.526-4.975 12.276-12.805 12.276h-8.524z" style="fill:#1e2826;fill-rule:nonzero" transform="translate(356.869 406.68)scale(4.16667)"/><path d="M0-26.101c4.527 0 7.667 1.672 10.236 4.282l-4.16 3.834C4.404-19.495 2.325-20.433 0-20.433c-4.364 0-7.177 3.262-7.177 7.382 0 4.526 3.221 7.383 7.299 7.383 4.282 0 6.362-2.367 6.524-4.733H-.326v-5.178h13.458v2.324C13.132-6.037 8.89 0 0 0c-7.748 0-13.254-5.75-13.254-13.051 0-7.3 5.506-13.05 13.254-13.05" style="fill:#1e2826;fill-rule:nonzero" transform="translate(503.632 489.268)scale(4.16667)"/><path d="M0-24.468h16.191v5.3H5.995v4.406h9.422v5.22H5.995v4.404H16.64V0H0z" style="fill:#1e2826;fill-rule:nonzero" transform="translate(595.836 485.864)scale(4.16667)"/><path d="M0-13.868h-5.464v-5.3h17.047v5.3H6.036V5.3H0z" style="fill:#1e2826;fill-rule:nonzero" transform="translate(729.178 463.78)scale(4.16667)"/><path d="M0 14.765c4.322 0 7.095-3.265 7.095-7.382C7.095 3.263 4.322 0 0 0c-4.364 0-7.096 3.263-7.096 7.383 0 4.117 2.732 7.382 7.096 7.382M0-5.668c7.707 0 13.172 5.75 13.172 13.051 0 7.3-5.465 13.05-13.172 13.05-7.749 0-13.173-5.75-13.173-13.05S-7.749-5.668 0-5.668" style="fill:#1e2826;fill-rule:nonzero" transform="translate(872.053 404.13)scale(4.16667)"/><path d="M0-25.284h6.28l4.936 11.54 2.976-7.666 1.491-3.874h3.159l1.647 3.872 3.246 7.628 4.486-11.5h6.24L24.266 0h-.817l-6.036-14.11L11.583 0h-.775z" style="fill:#1e2826;fill-rule:nonzero" transform="translate(960.228 489.264)scale(4.16667)"/><path d="M0-24.468h6.322L15.825-9.95v-14.518h5.954V0h-6.24L5.995-14.558V0H0z" style="fill:#1e2826;fill-rule:nonzero" transform="translate(1145.578 485.864)scale(4.16667)"/><path d="M0 29.41c-72.335-95.577-179.131-84.959-222.588-3.629-4.785 8.957.77 14.85 3.479 14.204 4.811-1.147 21.183-7.671 26.143-9.667 2.072-.833 3.759-4.816 5.591-8.441 37.304-73.833 86.983-82.001 158.215 73.7-3.447-17.74 3.705-37.688 26.886-58.34C.394 34.86 2.589 32.831 0 29.41" style="fill:#3a6d62;fill-rule:nonzero" transform="translate(1497.35 161.543)scale(4.16667)"/><path d="M-12.21-30.272c-16.155 7.442-32.126 11.637-34.609 1.182C-48.223-18.969-9.68-.335-12.21 21.62c-.119 1.034 1.497 1.294 1.936.35C-1.487 3.05-6.95-23.042-12.21-30.272" style="fill:#3a6d62;fill-rule:nonzero" transform="rotate(104.46 209.429 251.3)scale(-4.16667 4.16667)"/><path d="M0-88.196c1.54 0 2.104 2.297.603 2.646-30.856 7.18-44.416 37.243-45.162 53.989-.248 5.555-5.014 6.536-10.525 9.088-6.148 2.848-34.94 15.161-45.862 19.069-5.347 1.914-13.26 3.407-13.63-4.847C-116.052-41.137-81.521-88.199 0-88.196" style="fill:#3a6d62;fill-rule:nonzero" transform="translate(1856.008 579.501)scale(4.16667)"/><path d="M.982.451C.969.497.927.51.915.489.908.475.904.461.922.407 1.064-.03.945-.409 0-.064a.3.3 0 0 0 .081-.17c.369-.117.636-.063.787.088.138.138.179.356.114.597" style="fill:url(#a);fill-rule:nonzero" transform="rotate(-135 779.06 -.948)scale(747.03534 -747.03534)"/><path d="M1-.813C.989-.345.777.495.044.821.016.833-.014.798.007.775.271.479.447.027.429-.27c0-.01-.002-.018.007-.022.174-.081.392-.262.533-.529A.016.016 0 0 1 1-.814z" style="fill:url(#b);fill-rule:nonzero" transform="matrix(0 -204.1885 -204.1885 0 1630.195 430.351)"/><path d="M.489-.516c.032.172.326.454.561.627C.884.153.635.169.489.081.474.152.308.424.152.616.317.306.438-.424.489-.516" style="fill:url(#c);fill-rule:nonzero" transform="rotate(164.438 218.193 159.512)scale(-132.02702 132.02702)"/><defs><linearGradient id="a" x1="0" x2="1" y1="0" y2="0" gradientTransform="matrix(1 0 0 -1 0 .1)" gradientUnits="userSpaceOnUse"><stop offset="0" style="stop-color:#3a6d62;stop-opacity:1"/><stop offset=".95" style="stop-color:#2c4949;stop-opacity:1"/><stop offset="1" style="stop-color:#2c4949;stop-opacity:1"/></linearGradient><linearGradient id="b" x1="0" x2="1" y1="0" y2="0" gradientTransform="matrix(1 0 0 -1 0 -.003)" gradientUnits="userSpaceOnUse"><stop offset="0" style="stop-color:#3a6d62;stop-opacity:1"/><stop offset=".95" style="stop-color:#2c4949;stop-opacity:1"/><stop offset="1" style="stop-color:#2c4949;stop-opacity:1"/></linearGradient><linearGradient id="c" x1="0" x2="1" y1="0" y2="0" gradientTransform="rotate(-105.562 .5 0)scale(1 -1)" gradientUnits="userSpaceOnUse"><stop offset="0" style="stop-color:#3a6d62;stop-opacity:1"/><stop offset=".95" style="stop-color:#2c4949;stop-opacity:1"/><stop offset="1" style="stop-color:#2c4949;stop-opacity:1"/></linearGradient></defs></svg>