<?xml version="1.0" standalone="no"?>
<!DOCTYPE svg PUBLIC "-//W3C//DTD SVG 20010904//EN"
 "http://www.w3.org/TR/2001/REC-SVG-20010904/DTD/svg10.dtd">
<svg version="1.0" xmlns="http://www.w3.org/2000/svg"
 width="700.000000pt" height="700.000000pt" viewBox="0 0 700.000000 700.000000"
 preserveAspectRatio="xMidYMid meet">
<metadata>
Created by potrace 1.14, written by Peter Selinger 2001-2017
</metadata>
<g transform="translate(0.000000,700.000000) scale(0.100000,-0.100000)"
fill="#000000" stroke="none">
<path d="M2067 5294 c-136 -272 -247 -497 -247 -500 0 -6 77 -160 300 -599
300 -590 690 -1364 690 -1368 0 -2 -88 -4 -196 -3 l-197 1 -53 -105 c-29 -58
-73 -145 -97 -195 -60 -122 -232 -468 -262 -528 -14 -27 -25 -50 -25 -52 0 -2
284 -3 631 -3 l631 0 30 -53 c16 -30 64 -119 106 -199 42 -80 100 -190 129
-245 29 -55 68 -129 85 -165 18 -36 34 -67 36 -69 4 -8 994 -6 999 2 2 4 -105
222 -238 485 -133 262 -332 655 -442 872 -110 217 -286 566 -392 775 -106 209
-288 569 -405 800 -117 231 -299 591 -405 800 -106 209 -239 472 -296 585 -56
113 -110 217 -119 232 l-16 27 -247 -495z"/>
<path d="M2790 5645 c29 -55 69 -129 88 -165 19 -36 54 -101 77 -145 48 -89
170 -318 220 -410 34 -64 83 -154 160 -300 27 -49 65 -121 87 -158 21 -38 38
-70 38 -72 0 -2 29 -57 64 -122 36 -65 91 -168 123 -228 32 -61 89 -168 128
-240 l69 -130 190 -156 c444 -365 792 -651 812 -668 20 -17 23 -16 126 68 58
47 125 102 149 123 24 20 235 192 469 383 234 191 446 365 472 387 l47 39 0
-1318 0 -1318 23 -5 c13 -3 212 -5 443 -5 l420 1 3 2267 c1 1373 -2 2267 -7
2267 -5 0 -11 -3 -13 -8 -1 -4 -79 -70 -173 -147 -93 -77 -181 -149 -195 -162
-14 -12 -59 -49 -100 -83 -41 -34 -94 -78 -118 -97 -23 -20 -100 -83 -170
-140 -70 -58 -136 -112 -147 -121 -11 -9 -50 -42 -86 -72 -36 -30 -88 -73
-115 -95 -27 -22 -76 -63 -109 -90 -33 -28 -150 -124 -260 -215 -110 -91 -211
-174 -225 -186 -14 -12 -97 -81 -185 -154 -88 -72 -171 -141 -184 -152 -19
-16 -28 -18 -42 -10 -14 9 -514 415 -674 548 -22 18 -132 108 -245 199 -113
92 -214 174 -225 183 -11 10 -45 37 -75 62 -30 25 -57 47 -60 50 -3 3 -39 32
-80 65 -41 32 -77 62 -80 65 -3 3 -52 44 -110 90 -58 46 -121 97 -141 114 -20
17 -45 38 -55 46 -29 23 -128 104 -134 110 -3 3 -52 43 -110 89 -58 46 -114
91 -124 100 -12 10 2 -24 34 -84z"/>
<path d="M1330 3833 c-383 -757 -1127 -2226 -1230 -2428 -47 -93 -89 -177 -92
-185 -5 -13 54 -15 493 -14 275 0 501 3 503 5 2 2 109 213 239 469 129 256
352 698 496 983 l262 517 -248 490 c-136 269 -250 490 -253 490 -3 0 -79 -147
-170 -327z"/>
</g>
</svg>
